<?xml version="1.0" encoding="UTF-8" standalone="no"?>
<!-- Created with Inkscape (http://www.inkscape.org/) -->

<svg
   xmlns:dc="http://purl.org/dc/elements/1.1/"
   xmlns:cc="http://creativecommons.org/ns#"
   xmlns:rdf="http://www.w3.org/1999/02/22-rdf-syntax-ns#"
   xmlns:svg="http://www.w3.org/2000/svg"
   xmlns="http://www.w3.org/2000/svg"
   xmlns:sodipodi="http://sodipodi.sourceforge.net/DTD/sodipodi-0.dtd"
   xmlns:inkscape="http://www.inkscape.org/namespaces/inkscape"
   width="210mm"
   height="297mm"
   viewBox="0 0 210 297"
   version="1.1"
   id="svg8"
   inkscape:version="0.92.3 (2405546, 2018-03-11)"
   sodipodi:docname="logo.svg">
  <defs
     id="defs2" />
  <sodipodi:namedview
     id="base"
     pagecolor="#ffffff"
     bordercolor="#666666"
     borderopacity="1.0"
     inkscape:pageopacity="0.0"
     inkscape:pageshadow="2"
     inkscape:zoom="1.4"
     inkscape:cx="638.48295"
     inkscape:cy="359.84182"
     inkscape:document-units="mm"
     inkscape:current-layer="layer1"
     showgrid="false"
     inkscape:window-width="1360"
     inkscape:window-height="709"
     inkscape:window-x="0"
     inkscape:window-y="27"
     inkscape:window-maximized="1" />
  <metadata
     id="metadata5">
    <rdf:RDF>
      <cc:Work
         rdf:about="">
        <dc:format>image/svg+xml</dc:format>
        <dc:type
           rdf:resource="http://purl.org/dc/dcmitype/StillImage" />
        <dc:title></dc:title>
      </cc:Work>
    </rdf:RDF>
  </metadata>
  <g
     inkscape:label="Layer 1"
     inkscape:groupmode="layer"
     id="layer1">
    <path
       style="fill:#28b9ff;fill-opacity:1;stroke-width:0.26458332"
       d="m 135.70623,248.4098 c -1.57949,-0.6033 -2.44199,-1.3695 -6.35536,-5.64579 -11.86359,-12.96382 -21.40666,-26.39184 -31.482558,-44.29904 -5.441734,-9.6712 -8.978727,-18.65632 -10.386136,-26.38417 -0.645151,-3.54242 -0.646125,-11.80618 -0.0018,-15.61042 1.863515,-11.0033 6.709595,-20.49651 14.366694,-28.14359 7.6977,-7.68764 17.01067,-12.41521 28.29031,-14.36109 3.65851,-0.63114 11.40234,-0.63743 15.33447,-0.0124 11.04861,1.75608 20.58835,6.60737 28.44749,14.46651 8.27637,8.27638 13.18716,18.35946 14.69244,30.16728 1.50999,11.84473 -1.59581,24.2189 -9.98255,39.77261 -4.11189,7.62575 -10.67231,18.03767 -15.70052,24.91801 -7.33703,10.03961 -19.10058,23.28475 -21.93926,24.70245 -1.55646,0.77734 -3.87855,0.9662 -5.28318,0.42968 z"
       id="path4544"
       inkscape:connector-curvature="0"
       sodipodi:nodetypes="cssscsscssssccc" />
    <path
       style="fill:#ffffff;fill-opacity:0.94117647;stroke-width:0.33177909"
       d="m 100.66342,159.82846 v -20.40441 h 37.32515 37.32514 v 20.40441 20.40442 h -37.32514 -37.32515 z m 63.36981,15.75951 c 0.36518,-0.36518 0.66355,-1.10593 0.66355,-1.64735 0,-1.46667 1.72728,-3.27937 3.37603,-3.54301 2.32298,-0.37147 2.26422,-0.0972 2.26422,-10.56915 0,-10.37606 -0.0147,-10.45104 -2.05341,-10.45104 -1.33524,0 -3.58684,-2.17603 -3.58684,-3.46645 0,-0.48967 -0.15455,-1.17909 -0.34345,-1.53204 -0.33507,-0.62611 -0.97782,-0.64176 -26.36476,-0.64176 -25.38695,0 -26.0297,0.0157 -26.36477,0.64176 -0.1889,0.35295 -0.34345,1.04237 -0.34345,1.53204 0,1.29042 -2.2516,3.46645 -3.58684,3.46645 -2.03867,0 -2.05341,0.075 -2.05341,10.45104 0,10.08145 0.0601,10.45105 1.69907,10.45105 1.77213,0 3.43267,1.55077 3.90326,3.64524 0.18277,0.81339 0.59319,1.66966 0.91208,1.90283 0.45856,0.33531 5.87317,0.42395 25.89747,0.42395 24.87531,0 25.32929,-0.0113 25.98125,-0.66356 z m -50.20924,-2.21186 c -0.12164,-0.12164 -0.22119,-0.4725 -0.22119,-0.77967 0,-1.12665 -2.00215,-3.36026 -3.66762,-4.09161 l -1.6252,-0.71367 -0.008,-8.01928 -0.008,-8.01928 1.0403,-0.22848 c 1.34396,-0.29519 3.82289,-2.77724 4.19045,-4.19573 l 0.28578,-1.10287 h 24.18628 24.18636 l 0.33207,1.15782 c 0.4228,1.47424 2.87195,3.94044 4.17125,4.2003 l 0.99587,0.19918 -0.0137,8.00417 -0.0135,8.00417 -1.67904,0.7882 c -1.72246,0.80859 -3.60221,3.11474 -3.60221,4.41934 0,0.57147 -1.09524,0.59859 -24.16458,0.59859 -13.29052,0 -24.26411,-0.0996 -24.38576,-0.22118 z m 28.20617,-5.28517 c 4.55759,-2.1846 6.47974,-7.72197 4.25731,-12.26446 -4.25066,-8.68805 -17.53809,-5.65296 -17.46408,3.98911 0.0539,7.02656 6.88382,11.30617 13.20677,8.27535 z m -4.63839,-1.67072 c -0.12795,-0.12796 -0.23265,-0.43889 -0.23265,-0.69094 0,-0.25206 -0.40573,-0.80728 -0.90161,-1.23383 -0.76944,-0.66183 -0.8375,-0.85277 -0.4643,-1.30246 0.38533,-0.46429 0.54578,-0.47084 1.34981,-0.055 0.79549,0.41137 1.00393,0.40783 1.62553,-0.0276 0.39216,-0.2747 0.71302,-0.70426 0.71302,-0.9546 0,-0.70196 -0.95844,-1.49789 -1.80374,-1.49789 -1.13732,0 -2.45674,-1.20676 -2.6923,-2.4624 -0.24618,-1.31223 0.51823,-3.02894 1.48538,-3.3359 0.35538,-0.11286 0.69295,-0.53396 0.75013,-0.93591 0.13923,-0.9787 1.39222,-1.00306 1.53115,-0.0297 0.055,0.38558 0.46561,0.86761 0.91239,1.07117 0.81368,0.37073 1.10697,1.4902 0.4903,1.87133 -0.17713,0.10947 -0.737,-0.01 -1.24418,-0.26667 -1.08017,-0.54551 -1.62499,-0.4179 -2.11361,0.49509 -0.45589,0.85187 0.43951,1.93417 1.6002,1.93417 1.25793,0 2.74318,1.7009 2.74318,3.14146 0,1.16837 -1.14658,2.83057 -1.95252,2.83057 -0.17808,0 -0.3715,0.33439 -0.42981,0.7431 -0.10495,0.73551 -0.9172,1.15524 -1.36637,0.70607 z"
       id="path4570"
       inkscape:connector-curvature="0" />
  </g>
</svg>
